<svg xmlns="http://www.w3.org/2000/svg" version="1.1" x="0" y="0" width="100%" viewBox="0 0 900 900"
    xml:space="preserve">
    <g display="inline" fill="white">
      <path
        d="m692 602-1-9c1-9 4-17 10-27a301 301 0 0 0 25-68c1-9 2-11 6-13 3-2 4-2 6-1 5 4 7 11 6 23 0 9-2 13-10 24l-7 10c1 2 6 1 11-2 6-2 14-11 16-17 5-13 5-28 1-40-3-10-6-13-13-15l-3-1 2-2c6-6 18-8 27-6 10 3 14 9 16 23l1 10c0 1 3-2 5-6 1-4 2-6 2-13s0-8-3-13c-3-7-7-11-17-16-13-6-19-6-33 0l-7 3v-17l-1-16 3-4c3-6 10-10 22-14 5-2 8-2 15-2 14 0 23 4 32 13 15 15 24 52 19 76-4 18-17 47-27 60-7 9-13 14-31 26a86 86 0 0 1-30 16c-13 2-14 3-21 9-6 5-17 11-19 11l-2-2z" />
      <path
        d="M455 885c-25-2-37-8-44-22-2-6-5-15-5-21 0-9 5-18 12-27 6-7 11-10 26-13l12-2-1-3c-5-9-32-6-49 7-11 9-18 23-18 34 0 7-1 6-8-3-6-10-25-28-35-35l-21-11a95 95 0 0 1-39-26c-9-10-18-30-25-56-10-36-17-65-16-67s1-2 6-2c6 0 14 4 20 9s10 12 15 27a146 146 0 0 0 15 28c1 2 5 5 6 4l-3-15c-6-24-17-47-26-56a316 316 0 0 1-58-41c-6-6-7-7-12-18-12-26-15-33-16-50l-2-22c-1-9-2-18-1-44 0-31 0-32 2-36 3-5 5-13 7-26l3-15 14-29a293 293 0 0 0 21-61l-1-32-5 18c-6 27-11 41-15 42-1 1-3-15-2-31 0-22 3-32 13-54s14-32 21-61c5-21 10-31 23-44 10-9 17-15 29-20s14-5 21 1l6 4 12-12 14-12c1 0 6 6 14 19 8 11 13 19 15 19 3 2 5 0 13-9a307 307 0 0 0 13-20l8 7c10 9 14 12 16 12s10-7 19-17l4-6 5 9 6 10c3 2 4 2 19-10l14-11c1-1 3 1 7 5l9 6c5 1 9 0 20-7 16-10 19-11 24-11s11 3 21 10c9 6 17 15 32 34l29 33c16 16 27 29 41 49a185 185 0 0 1 33 118c-1 19-1 28 2 36a613 613 0 0 1 3 97 401 401 0 0 1-20 78l-11 12c-17 18-23 28-32 57-7 23-7 26-11 44-4 15-10 37-17 53-8 20-13 28-25 41l-7 10c1 1 7 0 9-1l28-24c6-8 9-16 17-56 6-31 7-35 18-55 6-10 6-10 9-7 4 4 4 7 2 22a396 396 0 0 0-4 52c-3 8-25 46-33 56-4 6-18 18-34 29-6 4-14 11-20 18l-15 14c-6 5-13 13-18 24-8 13-11 18-18 25-9 8-17 14-30 19a81 81 0 0 1-51 9zm-28-111c29-8 28-8 51-8 22 1 26 0 35-4 7-4 13-9 20-19 5-8 7-11 4-11l-10 6c-18 11-22 12-53 13-25 1-25 1-48 6-16 4-16 4-27 4-9 0-14-1-20-3l-17-2a82 82 0 0 0 41 23c4 0 9 0 24-5zm-51-70c21-5 34-6 55-4l14 2 13-4a545 545 0 0 1 29-8l31-2c42-1 58-5 72-19 9-8 11-15 5-20-5-4-10-2-22 8-6 5-10 8-16 9-6 2-33 3-51 3-15 0-17 1-37 6l-18 4c-3-1-8-6-10-10-2-3-2-7-3-15l-1-12c-1-1-4 3-7 9-3 7-4 13-2 23l2 9h-6c-23 3-33 6-58 18-9 5-8 4-8 6 1 1 1 1 18-3zm253-62c1-14-1-21-6-28-6-7-15-10-25-10-9 0-20 3-18 5l9 3c10 3 16 6 19 11a342 342 0 0 1 19 31l2-12zm-183-13 9-5c9-7 18-11 29-13 13-2 19-9 23-26 2-6 2-9 1-17 0-11 1-8-18-63l-9-28 1-4c2-3 7 1 16 13l9 11-3-18c-3-6-6-10-17-22-14-17-21-28-26-46l-10-30-1 4c0 6 4 32 7 44l3 24c2 26 3 34 9 54 5 18 5 18 1 13l-4-3c-1 0-2 1-1 3l15 28c7 10 9 19 9 29 1 11 0 12-13 16-12 4-19 8-27 13s-11 6-18 5c-6 0-11-3-17-8s-7-6-18-6c-13-1-17-2-20-8l-1-10c0-7 0-8 6-24 7-15 14-37 13-38l-2 1h-3a570 570 0 0 1 10-113c-1-11-3-18-4-16v5c-1 5-16 50-21 60-7 16-21 31-32 36s-18 7-32 7c-11 0-14-1-20-2a108 108 0 0 1-30-13c-4 0 4 9 13 15 19 13 46 17 69 10a81 81 0 0 0 27-13l-6 38c-10 46-11 49-8 59 2 10 9 18 18 21l13 2c7 1 11 3 23 7l19 8c6 2 13 2 18 0zm114-124-10-6-13-10c-6-5-10-13-10-19l-1-5 4 1 9 3c11 6 26 8 42 6 20-4 29-10 36-22 1-3 3-5 4-5l13 7 8 5v-4c0-6-3-19-6-24-1-4-4-7-9-12-24-23-31-26-55-26-18 0-32 3-48 12-7 4-7 4-5-4 2-6 7-16 13-25 4-6 5-6 3-7-4 0-21 14-28 25-6 8-12 22-13 25 0 5 2 8 12 13 11 6 10 5 10 17-1 10-1 12 1 18 3 10 7 18 14 24 6 6 7 7 17 11l11 4 1-2zm-241-20c16-4 25-13 32-34 3-6 3-8 10-14l8-9c1-3 1-6-2-10s-13-13-20-17c-6-3-19-7-25-8s-4 1 6 8c16 11 24 21 19 25-3 2-8 3-64 16l-46 11c-1 0 2 2 6 2 7 1 9 3 16 10 10 10 22 17 33 20h27zm-65-80c14-8 30-15 45-19l47-8c16-2 20-4 25-8 6-4 15-19 12-17l-6 3-11 3-52 5c-14 1-25 4-35 7-23 8-36 19-51 42-10 15-10 15 5 5l21-13zm254-47 44-17c39-12 44-13 56-12 12 2 46 13 58 20 6 2 8 2 7 0-1-3-10-15-16-21-7-6-22-17-29-20s-16-4-26-4c-12 1-17 2-38 12-31 14-59 26-68 28-11 3-20 3-30-1-7-2-24-1-22 2l33 16c12 4 16 4 31-3zm-87-7 1-16c3-12 7-19 16-26l5-4-4-1c-9 0-19 8-25 21-4 6-4 7-4 14 0 9 2 13 6 18s5 4 5-6zm255-54c-2-17-5-29-9-38-4-7-14-19-34-39a142 142 0 0 1-44-67c-6-17-7-16-3 8 6 36 11 46 39 75 15 15 18 20 33 41a582 582 0 0 0 18 20zm-313-11c28-4 39-8 58-23 15-11 29-18 42-22 8-2 21-4 27-3h4l-16-7c-6-1-14 0-22 2l-26 12a568 568 0 0 1-87 42c2 1 7 1 20-1zM194 621l-16-10-5-9c-8-13-19-23-33-29-13-6-20-12-30-26-13-21-16-33-16-66l-1-17 3-6c4-8 13-21 17-25 7-7 20-11 31-11 7 1 11 3 16 7 4 5 11 17 13 24l1 14-6-3c-9-4-14-5-25-3-12 2-13 2-20 9-9 7-15 16-12 17 1 1 4-1 8-5l7-7h6l6-2h3l3 1c1-1 18 10 18 12 1 2 1 2-3 3-5 1-14 5-17 9-4 5-6 12-6 20a35 35 0 0 0 13 29 467 467 0 0 0-2-25c2-8 9-14 18-13 8 1 12 7 12 17l3 32c3 13 8 24 21 45 5 9 5 10 5 14v5h-4l-8-1z" />
    </g>
    <g display="inline" fill="white">
      <mask id="mask" fill="white">
        <path
          d="m692 602-1-9c1-9 4-17 10-27a301 301 0 0 0 25-68c1-9 2-11 6-13 3-2 4-2 6-1 5 4 7 11 6 23 0 9-2 13-10 24l-7 10c1 2 6 1 11-2 6-2 14-11 16-17 5-13 5-28 1-40-3-10-6-13-13-15l-3-1 2-2c6-6 18-8 27-6 10 3 14 9 16 23l1 10c0 1 3-2 5-6 1-4 2-6 2-13s0-8-3-13c-3-7-7-11-17-16-13-6-19-6-33 0l-7 3v-17l-1-16 3-4c3-6 10-10 22-14 5-2 8-2 15-2 14 0 23 4 32 13 15 15 24 52 19 76-4 18-17 47-27 60-7 9-13 14-31 26a86 86 0 0 1-30 16c-13 2-14 3-21 9-6 5-17 11-19 11l-2-2z" />
        <path
          d="M455 885c-25-2-37-8-44-22-2-6-5-15-5-21 0-9 5-18 12-27 6-7 11-10 26-13l12-2-1-3c-5-9-32-6-49 7-11 9-18 23-18 34 0 7-1 6-8-3-6-10-25-28-35-35l-21-11a95 95 0 0 1-39-26c-9-10-18-30-25-56-10-36-17-65-16-67s1-2 6-2c6 0 14 4 20 9s10 12 15 27a146 146 0 0 0 15 28c1 2 5 5 6 4l-3-15c-6-24-17-47-26-56a316 316 0 0 1-58-41c-6-6-7-7-12-18-12-26-15-33-16-50l-2-22c-1-9-2-18-1-44 0-31 0-32 2-36 3-5 5-13 7-26l3-15 14-29a293 293 0 0 0 21-61l-1-32-5 18c-6 27-11 41-15 42-1 1-3-15-2-31 0-22 3-32 13-54s14-32 21-61c5-21 10-31 23-44 10-9 17-15 29-20s14-5 21 1l6 4 12-12 14-12c1 0 6 6 14 19 8 11 13 19 15 19 3 2 5 0 13-9a307 307 0 0 0 13-20l8 7c10 9 14 12 16 12s10-7 19-17l4-6 5 9 6 10c3 2 4 2 19-10l14-11c1-1 3 1 7 5l9 6c5 1 9 0 20-7 16-10 19-11 24-11s11 3 21 10c9 6 17 15 32 34l29 33c16 16 27 29 41 49a185 185 0 0 1 33 118c-1 19-1 28 2 36a613 613 0 0 1 3 97 401 401 0 0 1-20 78l-11 12c-17 18-23 28-32 57-7 23-7 26-11 44-4 15-10 37-17 53-8 20-13 28-25 41l-7 10c1 1 7 0 9-1l28-24c6-8 9-16 17-56 6-31 7-35 18-55 6-10 6-10 9-7 4 4 4 7 2 22a396 396 0 0 0-4 52c-3 8-25 46-33 56-4 6-18 18-34 29-6 4-14 11-20 18l-15 14c-6 5-13 13-18 24-8 13-11 18-18 25-9 8-17 14-30 19a81 81 0 0 1-51 9zm-28-111c29-8 28-8 51-8 22 1 26 0 35-4 7-4 13-9 20-19 5-8 7-11 4-11l-10 6c-18 11-22 12-53 13-25 1-25 1-48 6-16 4-16 4-27 4-9 0-14-1-20-3l-17-2a82 82 0 0 0 41 23c4 0 9 0 24-5zm-51-70c21-5 34-6 55-4l14 2 13-4a545 545 0 0 1 29-8l31-2c42-1 58-5 72-19 9-8 11-15 5-20-5-4-10-2-22 8-6 5-10 8-16 9-6 2-33 3-51 3-15 0-17 1-37 6l-18 4c-3-1-8-6-10-10-2-3-2-7-3-15l-1-12c-1-1-4 3-7 9-3 7-4 13-2 23l2 9h-6c-23 3-33 6-58 18-9 5-8 4-8 6 1 1 1 1 18-3zm253-62c1-14-1-21-6-28-6-7-15-10-25-10-9 0-20 3-18 5l9 3c10 3 16 6 19 11a342 342 0 0 1 19 31l2-12zm-183-13 9-5c9-7 18-11 29-13 13-2 19-9 23-26 2-6 2-9 1-17 0-11 1-8-18-63l-9-28 1-4c2-3 7 1 16 13l9 11-3-18c-3-6-6-10-17-22-14-17-21-28-26-46l-10-30-1 4c0 6 4 32 7 44l3 24c2 26 3 34 9 54 5 18 5 18 1 13l-4-3c-1 0-2 1-1 3l15 28c7 10 9 19 9 29 1 11 0 12-13 16-12 4-19 8-27 13s-11 6-18 5c-6 0-11-3-17-8s-7-6-18-6c-13-1-17-2-20-8l-1-10c0-7 0-8 6-24 7-15 14-37 13-38l-2 1h-3a570 570 0 0 1 10-113c-1-11-3-18-4-16v5c-1 5-16 50-21 60-7 16-21 31-32 36s-18 7-32 7c-11 0-14-1-20-2a108 108 0 0 1-30-13c-4 0 4 9 13 15 19 13 46 17 69 10a81 81 0 0 0 27-13l-6 38c-10 46-11 49-8 59 2 10 9 18 18 21l13 2c7 1 11 3 23 7l19 8c6 2 13 2 18 0zm114-124-10-6-13-10c-6-5-10-13-10-19l-1-5 4 1 9 3c11 6 26 8 42 6 20-4 29-10 36-22 1-3 3-5 4-5l13 7 8 5v-4c0-6-3-19-6-24-1-4-4-7-9-12-24-23-31-26-55-26-18 0-32 3-48 12-7 4-7 4-5-4 2-6 7-16 13-25 4-6 5-6 3-7-4 0-21 14-28 25-6 8-12 22-13 25 0 5 2 8 12 13 11 6 10 5 10 17-1 10-1 12 1 18 3 10 7 18 14 24 6 6 7 7 17 11l11 4 1-2zm-241-20c16-4 25-13 32-34 3-6 3-8 10-14l8-9c1-3 1-6-2-10s-13-13-20-17c-6-3-19-7-25-8s-4 1 6 8c16 11 24 21 19 25-3 2-8 3-64 16l-46 11c-1 0 2 2 6 2 7 1 9 3 16 10 10 10 22 17 33 20h27zm-65-80c14-8 30-15 45-19l47-8c16-2 20-4 25-8 6-4 15-19 12-17l-6 3-11 3-52 5c-14 1-25 4-35 7-23 8-36 19-51 42-10 15-10 15 5 5l21-13zm254-47 44-17c39-12 44-13 56-12 12 2 46 13 58 20 6 2 8 2 7 0-1-3-10-15-16-21-7-6-22-17-29-20s-16-4-26-4c-12 1-17 2-38 12-31 14-59 26-68 28-11 3-20 3-30-1-7-2-24-1-22 2l33 16c12 4 16 4 31-3zm-87-7 1-16c3-12 7-19 16-26l5-4-4-1c-9 0-19 8-25 21-4 6-4 7-4 14 0 9 2 13 6 18s5 4 5-6zm255-54c-2-17-5-29-9-38-4-7-14-19-34-39a142 142 0 0 1-44-67c-6-17-7-16-3 8 6 36 11 46 39 75 15 15 18 20 33 41a582 582 0 0 0 18 20zm-313-11c28-4 39-8 58-23 15-11 29-18 42-22 8-2 21-4 27-3h4l-16-7c-6-1-14 0-22 2l-26 12a568 568 0 0 1-87 42c2 1 7 1 20-1zM194 621l-16-10-5-9c-8-13-19-23-33-29-13-6-20-12-30-26-13-21-16-33-16-66l-1-17 3-6c4-8 13-21 17-25 7-7 20-11 31-11 7 1 11 3 16 7 4 5 11 17 13 24l1 14-6-3c-9-4-14-5-25-3-12 2-13 2-20 9-9 7-15 16-12 17 1 1 4-1 8-5l7-7h6l6-2h3l3 1c1-1 18 10 18 12 1 2 1 2-3 3-5 1-14 5-17 9-4 5-6 12-6 20a35 35 0 0 0 13 29 467 467 0 0 0-2-25c2-8 9-14 18-13 8 1 12 7 12 17l3 32c3 13 8 24 21 45 5 9 5 10 5 14v5h-4l-8-1z" />
      </mask>
      <rect x="0" y="900" width="100%" height="100%" fill="#31ccd5"
        mask="url(#mask)" >
        <animate id="bar" attributeName="y" from="900" to="0" dur="20s" fill="freeze" />
      </rect>
    </g>
    <g style="mix-blend-mode:normal" display="inline">
      <path fill="#de4d49" opacity="1"
        d="M490 689c-1 16-11 25-24 33-14 9-30 9-45 1l-4-2c-8-3-11-1-13 7-2 7-2 12 7 16 5 2 8 13 9 19-2 1-6 7-8 2-14 6-27-1-42-6l-5-2c-8-1-16-8-21-15-5-6-7-14-7-22l-13 17c-1 1 1 4 2 6 7 6 12 14 14 24 3 10-3 22-7 31-17-7-34-14-48-28-6-6-10-14-13-22-3-9-9-17-11-26-7-25-12-51-18-76-2-8-3-15 5-13 16 4 32 18 38 33 2 7 8 13 11 21l-4 2s3-1 0 1l5-1-1 2c1 1-2 2-1 3l3-1c1 1-2 3-1 4l2-1c1 1 2 1-1 3 0 0 1-2 2-1h2c0 1-3 4-2 5l1 1v1-6c-3-12 0 1 1 0l3 7-3-3-1-2v-1l-7-23v-2l-2-3 1-1v-2h-1c0-2-1-4-3-4-3 1 0-1 0-1l-4-7s-14 1 4-3c-8 2-4 0-4 0s-6 0-2-1c0-1 0 0 0 0l-1-3-4-4v-1l-2-3h-1l5-2-5 2 4-3c-10 3-4 0-5 0l-1-2c-7-9-16-11-25-18-12-8-26-17-37-27-5-4-9-11-11-17-7-13-10-28-11-43l-3-15c7-2 18-3 25-3 4-1 6-3 8-7 2-7 11-11 18-10 20 3 14 18 20 20a145 145 0 0 1 86 76c7 15 10 31 11 48 1 4 2 6 7 8 10 2 17 8 20 18l3 5 21-15c7-5 12-5 18 2l5 5 7 23c-20 5-41 2-55 12l-2-4v4l-2-3-1 3-1-2c-1 4-4 2-6 3h6l-15 5 1 1 31-6 1-1h4l1-1h30l2 1 10 1h8l26-7 2-1h2l2-1h2l8-2z"
        display="inline" />
      <path fill="#de4d49" opacity="1"
        d="M349 806c5-14 12-18 26-16l9-1c3 0 6 0 8 4 2 3 1 6-1 9-1 2-3 5-3 8-1 9-7 14-15 18l-24-22z" display="inline" />
      <path fill="#de4d49" opacity="1"
        d="m534 688 28-4c12-3 22-9 31-17l4-6c2-4 2-7-1-11-4-3-8-4-12-1l-11 9c-8 8-17 10-28 10 4-2 6-5 5-10l1-4c2-7 3-13-1-19-3-5 1-12 6-15 5-2 13-1 16 4 2 4 5 5 10 5a30 30 0 0 1 0 60c-4 1-6 2-8 6-5 9-14 14-23 12s-16-9-17-19z"
        display="inline" />
      <path fill="#dd4d49" opacity="1" d="M396 640c-1 8-6 13-14 12-6-1-10-6-10-13 0-5 4-9 10-11 3-1 9 2 12 5l2 7z"
        display="inline" />
      <path fill="#de4d49" opacity="1" d="M320 539c1-7 5-11 10-12 6 0 12 3 14 8 1 5-1 11-6 14-8 4-16 0-18-10z"
        display="inline" />
      <path fill="#dd4d49" opacity="1" d="M551 598c-7 3-11 2-14-2-3-3-3-8 0-12 3-5 10-6 15-2 5 5 5 11-1 16z"
        display="inline" />
      <path fill="#de4c49" opacity="1" d="M204 467c3-4 8-5 12-3 2 1 5 5 5 8s-2 7-5 9-7 2-11-1c-4-4-4-8-1-13z"
        display="inline" />
      <path fill="#dd4d49" opacity="1" d="M375 766c10 6 20 11 32 13-11 10-30 3-32-13z" display="inline" />
      <path fill="#dd4d49" opacity="1" d="m368 624 1 3v5l-4 3-7-2s0 1 0 0l-2-4v-2l2-3v-1h1l2-1h2l3 1 2 1z"
        display="inline" />
    </g>
    <g display="inline">
      <path fill="#000" opacity="1"
        d="m382 5 19 19c3 3 6 3 8 1l22-20 3-3 8 20 9 14 7-6 1-1 1-1s0 1 0 0l10-9 1-1 1-1 1-1 5-2 7 9v1a467 467 0 0 0 9 12l3 2v1h1v1c6 7 14 11 23 14l60 23 23 11 20 11v1l8 5v1h1v1l1 1 21 19v1l9 10v1l8 13 10 17 1 2 1 2 1 2h1v1l14 25 1 2 10 20-1 1 3 4-1 1 8 27 2 11 6 65v25l-2 18c0 7 0 14 5 21l6-4c6-2 12-6 18-7 7-2 14-1 22-2 16-2 27 6 36 18 12 14 17 31 18 49 2 21 2 41-7 60l-16 29c-8 14-19 26-33 35-13 8-25 17-41 22-18 5-30 18-34 37l-10 43c-3 14-5 28-15 40l-5 8c-8 11-16 23-25 33-4 5-9 10-14 13-14 9-24 22-35 33-17 15-31 32-43 50-9 12-21 22-34 28-10 6-21 9-32 13l-20 2c-16 1-32 1-47-6l-7-4-33-29c-19-18-37-36-58-51l-20-12c-11-9-24-18-30-32-13-27-25-55-31-85-2-14-7-27-11-41-1-4-3-5-7-3-19 6-37 3-52-12l-8-10c-9-15-22-25-36-35-8-5-16-10-22-18-9-10-15-23-17-37l-5-39a65 65 0 0 1 16-50c5-10 14-15 25-18l6-1c13-3 26-4 39 4l10 4 3-18c6-23 9-47 8-71-1-15-2-31 0-46 4-31 10-62 16-92 4-21 10-41 24-58 15-17 30-33 50-44 12-6 20-15 27-26 5-6 6-11 10-18l9 7c5 3 7 4 11-1 7-7 13-14 18-22M116 477l1-1 9-9 6-4 18-3c9 0 17 3 24 8 2-13-3-24-10-34-6-10-15-13-26-12-13 1-24 6-32 18-5 9-13 17-13 29 0 14 0 29 2 43 2 16 11 30 20 43 6 8 13 14 23 18 16 6 28 17 36 32l5 8 18 9c3 1 7 2 9 0 2-1 1-6 1-9l-2-4-10-16c-4-7-8-14-10-21-6-16-7-33-7-50-1-7-7-13-14-14-10 0-18 7-17 17l2 22c-9-9-15-20-13-33 2-16 13-23 28-26l-3-5-16-10h-5a15427 15427 0 0 0-3 0l-6 1h-1l-5 1-2 2-10 10h-2v-2l1-1a62 62 0 0 1 4-7m165 163v1h1v1a146 146 0 0 0 2 4l3 4 1 2h1v1l1 2v1l4 8v1l2 4v1h1v1l2 5v1l3 16 3 8v1l1 2-1 2-3-2-1-1-1-1-1-2-1-1v-1l-1-1v-1l-2-2v-1l-1-2-1-1v-1l-2-2-8-20c-5-14-14-25-30-29-8-2-11 0-9 8l19 76 11 26c3 8 8 14 14 20 14 14 32 20 50 28l13 9 23 22 12 18 2-3c0-34 34-52 56-50 7 1 10 3 11 8-5 1-11 1-16 3-8 1-15 3-20 9-9 11-15 22-12 37 2 14 7 25 21 32 13 5 26 4 39 6 11 1 22-3 32-7 21-9 41-20 52-42 6-12 14-24 25-33l11-11 11-11 21-15c9-7 18-13 24-22 11-16 20-34 30-51 2-4 2-9 3-14l1-26 3-25c1-5 0-9-3-13-2-3-4-3-7 0l-4 10c-8 11-12 24-15 38-3 17-6 34-11 51-2 9-6 18-15 25l-20 17c-3 2-6 4-10 1l9-10 9-11c13-20 20-41 27-63l3-11c2-9 3-19 6-28l9-32c6-20 17-37 32-51 4-3 8-8 9-12 5-12 9-25 12-38 4-16 8-32 8-49 1-26-1-53-2-79l-1-4c-4-10-4-21-3-31 0-8 2-17 1-25a192 192 0 0 0-29-95c-10-15-22-29-33-43-6-8-15-14-21-21l-28-34c-10-13-21-23-34-31-8-4-16-5-24 1l-18 10c-11 6-14 6-23-3l-5-6-5 4-22 17c-6 4-7 4-10-2l-9-16-16 19c-6 6-7 6-14 0l-5-5-12-10-7 11-13 17c-3 4-6 3-8 0l-10-14-13-20c-2-3-5-4-7-1l-4 3-19 20-7-6c-4-4-8-5-13-3l-20 10a85 85 0 0 0-33 38c-5 10-7 20-9 31-4 18-11 35-19 51-14 27-16 57-11 87 7-4 11-18 21-63v31l-2 13c-4 17-9 34-18 49-6 8-9 17-13 26l-1 4c-4 14-4 29-12 42v3l-1 59 3 25v4l1 15c1 15 8 28 15 42 2 6 5 13 9 17 11 10 23 19 35 27 9 7 20 9 28 19l1 1 1 2h1m476-66 2-2c10-7 22-13 30-22 15-16 23-36 30-57 8-24 5-48-5-71-12-31-43-36-68-24-10 5-17 12-15 25v24l11-4c7-4 15-6 23-2l16 8c12 8 14 30 5 42l-1-10c-2-16-8-22-22-24-9-2-21 3-25 10 9-1 14 5 16 13 5 13 5 26 0 39-3 11-10 18-20 22l-6 1-1-2 13-17c2-2 3-5 3-7l2-11-1-13c-2-6-6-9-10-9-6 2-8 6-8 10-1 16-6 31-13 45-4 10-7 19-12 28-8 10-11 21-10 33 0 5 2 7 5 5 6-2 11-5 16-9 4-5 9-9 16-9 10-2 20-5 29-12z" />
      <path fill="#000" opacity="1" d="M900 422v-1 1z" />
      <path fill="#000" opacity="1" d="M0 492v1-1zm900-9z" />
      <path fill="#000" opacity="1"
        d="M310 510c-20-3-38-11-51-27l1-1 12 7c23 10 46 12 69 2 10-4 17-12 24-21 10-12 14-26 19-40l10-30 2-11c2 9 4 18 2 27l-6 24-3 40-1 37v3l6-3-8 25-10 26c-2 4-3 8-2 12 0 12 6 17 18 17h7c6 0 11 2 15 7 8 9 24 11 33 4 10-8 22-12 34-16 8-2 10-5 9-13 0-12-3-23-10-33-6-7-10-17-14-25l-1-3 1-1 7 8 1-1-4-15c-6-19-9-38-9-58 0-12-5-24-7-36l-4-29v-5l2 4 9 30c4 15 13 28 24 40l11 12c7 9 10 19 10 30l-15-20-4-4-5-2-2 6c0 4 2 7 3 10l23 67c5 15 3 29-4 43-3 9-10 13-19 14-12 2-22 7-31 14s-17 7-26 3l-30-12c-5-2-11-2-16-3-16-3-26-14-26-30l2-18 14-66v-7a78 78 0 0 1-60 18z" />
      <path fill="#000" opacity="1"
        d="M538 498c-15-10-26-36-21-53 1-4 0-7-4-9l-14-8c-5-3-5-6-3-12a96 96 0 0 1 38-45h2c-9 12-17 24-19 40l7-4c21-12 43-16 66-11 9 1 16 6 23 12l15 14c12 9 12 23 14 37l-16-10c-6-3-7-3-10 3-6 14-17 19-31 22-17 3-33 2-49-7-3-2-7-1-10-2l1 10c4 10 10 17 20 22l12 8v2l-21-9m40-47c-12 2-21-3-29-10s-8-18-6-28c-9 1-13 4-13 10-1 15 9 33 27 37 5 2 11 2 17 2 18 0 32-11 35-30l-1-3-10-13c1 22-4 31-20 35m-4-6c9-2 14-8 15-16 1-11-8-21-19-21-10 0-19 9-19 20 1 11 11 19 23 17z" />
      <path fill="#000" opacity="1"
        d="M424 699h-4c-4-1-7-2-10-1l-12 1h-2l-1 1h-4l-2 1-16 2-6-2 6-3h1l1-1h2l1-1h1c16-9 33-11 52-13l-4-19v-2l3-11 6-9 1 1 1 21c1 7 6 11 11 15h8l33-9 31-1 24-1c11 0 20-2 28-10l11-9c4-3 8-2 12 1 3 4 3 7 1 11l-4 6c-9 8-19 14-31 17l-28 3-35 1-10 2-9 2h-2l-2 1h-2l-2 1a767 767 0 0 0-32 7h-2a99 99 0 0 0-14-2z" />
      <path fill="#000" opacity="1"
        d="m672 347 2 4-4-1c-16-9-33-13-50-19-14-4-27-3-41 1-26 9-53 16-78 29-3 2-8 3-12 2-5 0-10-1-14-3l-26-13-5-3c8-3 16-2 23 0 12 4 25 3 37-2 25-9 49-20 73-31a62 62 0 0 1 54-1c15 9 30 19 39 35l2 2z" />
      <path fill="#000" opacity="1"
        d="m248 450 94-21c8-2 9-5 5-12s-11-12-18-16l-10-7v-1l12 2c14 5 26 12 35 23 5 5 5 8 1 13l-3 3c-9 5-12 12-15 21-5 17-17 28-35 30-17 3-32-2-46-13-4-2-8-5-10-9-5-6-10-8-17-8l-4-2 11-3m62 19c-14 2-24-3-29-16l-3-2-11 2c10 18 28 26 46 21s29-17 28-32c-4-1-7 0-8 6-3 11-10 19-23 21m8-11c5-4 8-10 7-17-6 0-12 0-14 8 0 4-5 4-8 1l-5-2-11 2c6 14 17 17 31 8z" />
      <path fill="#000" opacity="1"
        d="m379 356 4-3c-5 12-12 21-26 23l-53 9c-22 4-42 13-60 26l-23 15 2-5c11-17 22-33 41-43 17-9 35-13 54-14l51-5 10-3z" />
      <path fill="#000" opacity="1"
        d="m362 756 5-1c15 5 29 8 44 6l6-1 19-5c15-4 31-4 47-4 11 0 22-1 32-6l18-10 4-3 1 2-9 13a47 47 0 0 1-42 19h-25l-16 2-36 11h-2c-13-2-23-7-33-13l-13-10z" />
      <path fill="#000" opacity="1"
        d="m643 254-30-32a98 98 0 0 1-25-53l-4-28 9 22c8 25 24 43 43 61l25 27c8 9 11 22 13 34l2 15-33-46z" />
      <path fill="#000" opacity="1"
        d="M446 238c11-6 23-9 36-5l12 5c-31-4-55 10-78 29-12 9-26 14-41 17l-26 3c-2 1-4 0-7-1l21-7c11-5 22-9 32-15l51-26z" />
      <path fill="#000" opacity="1"
        d="M583 607c8-3 17-5 26-2 12 5 20 15 20 29l-1 20h-2l-1-4-10-16-4-7c-3-7-9-12-16-14l-15-4 3-2z" />
      <path fill="#000" opacity="1" d="M432 313c-9 9-11 21-12 33v14c-8-5-12-20-8-31 6-15 19-28 31-24l-11 8z" />
      <path fill="#000" opacity="1"
        d="m367 701 6 2 16-2-30 6-1-1 9-5zm32-2 11-1c3-1 6 0 10 1h-21zm47 2zm-18-1 10 1-10-1zm-55-2-6 3 6-3zm68 3h3-3zm-49 0 2-1-2 1zm32-2h2-2zm54-7h1-1zm-4 1h1-1zm-95 3h-1 1zm-2 1h-1 1zm-2 0-1 1 1-1zm20 3 1-1-1 1z" />
      <path fill="#fff" opacity="1"
        d="M578 451c16-4 21-13 20-35l10 13 1 3c-3 19-17 30-35 30-6 0-12 0-17-2-18-4-28-22-27-37 0-6 4-9 13-10-2 10-2 21 6 28s17 12 29 10z" />
      <path fill="#fff" opacity="1"
        d="M574 445c-12 2-22-6-23-17 0-11 9-20 19-20 11 0 20 10 19 21-1 8-6 14-15 16m-8-14c3 2 6 2 8-1v-6c-1-1-4-3-5-2-4 0-5 3-3 9z" />
      <path fill="#fff" opacity="1"
        d="M310 469c13-2 20-10 23-21 1-6 4-7 8-6 1 15-10 27-28 32s-36-3-46-21l11-2 3 2c5 13 15 18 29 16z" />
      <path fill="#fff" opacity="1" d="M317 459c-13 8-24 5-30-9l11-2 5 2c3 3 8 3 8-1 2-8 8-8 14-8 1 7-2 13-8 18z" />
      <path fill="#000" opacity="1" d="M566 431c-2-6-1-9 3-9 1-1 4 1 5 2v6c-2 3-5 3-8 1z" />
    </g>
  </svg>